<svg id="Capa_1" data-name="Capa 1" xmlns="http://www.w3.org/2000/svg" viewBox="0 0 349.66 350"><defs><style>.cls-1{fill:#ed303c;}</style></defs><title>principal</title><path class="cls-1" d="M304.52,0a45.13,45.13,0,0,0-41.15,63.69l-24.2,24.2a78.83,78.83,0,0,0-116.28,32.78L90,111.86a45.16,45.16,0,1,0-8.28,30.86l34.17,9.16c0,.4,0,.8,0,1.2A79,79,0,0,0,194.81,232c1,0,1.9,0,2.84-.06l9.73,36.32A45.13,45.13,0,1,0,238.25,260l-9.55-35.64a78.83,78.83,0,0,0,32.72-113.46L286,86.28A45.14,45.14,0,1,0,304.52,0ZM194.81,200a46.93,46.93,0,1,1,46.93-46.93A47,47,0,0,1,194.81,200Z"/></svg>